<?xml version="1.0" encoding="UTF-8" standalone="no"?><!DOCTYPE svg PUBLIC "-//W3C//DTD SVG 1.1//EN" "http://www.w3.org/Graphics/SVG/1.1/DTD/svg11.dtd"><svg width="100%" height="100%" viewBox="0 0 50 50" version="1.1" xmlns="http://www.w3.org/2000/svg" xmlns:xlink="http://www.w3.org/1999/xlink" xml:space="preserve" xmlns:serif="http://www.serif.com/" style="fill-rule:evenodd;clip-rule:evenodd;stroke-linecap:round;stroke-linejoin:round;stroke-miterlimit:10;"><g><path d="M18.594,47.92l-15.221,-42.513" style="fill:none;fill-rule:nonzero;stroke:#fff;stroke-width:2px;"/><path d="M4.448,8.409c0,0 5.911,-6.409 16.179,-6.409c6.25,0 9.106,4.073 14.264,4.073c5.155,-0 10.107,-4.073 10.107,-4.073l-0,26.471c-0,0 -3.723,2.037 -8.146,2.037c-4.421,0 -6.225,-2.037 -12.217,-2.037c-5.683,0 -11.025,5.516 -11.025,5.516l-9.162,-25.578Z" style="fill:none;fill-rule:nonzero;stroke:#fff;stroke-width:2px;"/><path d="M4.448,8.409c0,0 3.067,-3.248 7.207,-4.584l3.164,8.124c0,0 -4.086,1.47 -7.422,4.605l-2.844,-7.845" style="fill:#fff;fill-rule:nonzero;"/><path d="M14.819,11.949l3.412,8.759c0,0 2.683,-0.954 4.53,-0.954c1.847,0 3.678,0.271 3.678,0.271l-2.477,-9.315c0,0 -0.7,-0.099 -1.563,-0.099c-4.135,0 -7.58,1.338 -7.58,1.338Z" style="fill:#fff;fill-rule:nonzero;"/><path d="M10.72,25.776l2.89,8.21c0,0 3.997,-3.832 7.804,-4.91l-3.182,-8.368c-3.666,1.412 -7.512,5.068 -7.512,5.068Z" style="fill:#fff;fill-rule:nonzero;"/><path d="M21.676,2.111l2.287,8.598c1.85,0 6.994,2.521 6.994,2.521l-2.028,-8.879c-1.163,-0.435 -4.208,-2.096 -7.253,-2.24Z" style="fill:#fff;fill-rule:nonzero;"/><path d="M26.439,20.024l2.355,8.851c1.186,0 4.586,1.449 6.065,1.449l-1.988,-8.702c-1.914,-0.498 -5.012,-1.399 -6.432,-1.598Z" style="fill:#fff;fill-rule:nonzero;"/><path d="M30.957,13.231l1.915,8.392c0,0 1.916,0.354 3.231,0.354c1.314,0 2.953,-0.298 2.953,-0.298l-0.622,-7.684c0,0 -1.269,0.394 -2.807,0.394c-2.402,0 -4.67,-1.158 -4.67,-1.158Z" style="fill:#fff;fill-rule:nonzero;"/><path d="M37.762,5.671l0.673,8.323c0,0 3.129,-0.786 6.565,-3.384l-0.002,-8.61c-3.945,3.022 -7.236,3.671 -7.236,3.671Z" style="fill:#fff;fill-rule:nonzero;"/><path d="M39.057,21.679c0,-0 3.014,-0.559 5.941,-2.259l0,9.051c-3.117,1.496 -5.261,1.767 -5.261,1.767l-0.68,-8.559Z" style="fill:#fff;fill-rule:nonzero;"/></g></svg>