<?xml version="1.0" encoding="UTF-8" standalone="no"?><!DOCTYPE svg PUBLIC "-//W3C//DTD SVG 1.1//EN" "http://www.w3.org/Graphics/SVG/1.1/DTD/svg11.dtd"><svg width="100%" height="100%" viewBox="0 0 11 10" version="1.1" xmlns="http://www.w3.org/2000/svg" xmlns:xlink="http://www.w3.org/1999/xlink" xml:space="preserve" xmlns:serif="http://www.serif.com/" style="fill-rule:evenodd;clip-rule:evenodd;stroke-linejoin:round;stroke-miterlimit:2;"><g><path d="M2.018,2.27c-1.646,1.646 -1.646,4.314 -0,5.959c1.644,1.645 4.314,1.645 5.959,0c1.646,-1.645 1.646,-4.313 -0,-5.959l-1.788,1.788c0.658,0.658 0.658,1.725 0,2.384c-0.658,0.658 -1.726,0.658 -2.384,-0c-0.658,-0.659 -0.658,-1.726 0,-2.384l-1.787,-1.788Z" style="fill:#fff;"/><circle cx="4.997" cy="5.625" r="0.75" style="fill:#fff;"/></g><g><g><path d="M6.323,0.809l-0.647,2.411l0.158,-3.048c-0.895,-0.387 -1.677,0 -1.677,0l0.158,3.048l-0.645,-2.411c-1.798,0.5 -2.937,1.964 -2.937,3.921l8.529,0c-0,-1.957 -1.14,-3.421 -2.939,-3.921Z" style="fill:#fff;fill-rule:nonzero;"/><rect x="0" y="4.5" width="10.096" height="0.75" style="fill:#fff;"/></g></g></svg>